<svg width="220" height="220" viewBox="0 0 220 220" xmlns="http://www.w3.org/2000/svg" fill="none">
  <!-- Fondo oscuro -->
  <!-- <rect width="220" height="220" rx="32" fill="#121212"/> -->
  
  
  <!-- Señal de ubicación estilizada -->
  <path d="M110,50 C135,50 155,70 155,95 C155,130 110,175 110,175 C110,175 65,130 65,95 C65,70 85,50 110,50 Z" fill="#0078D7"/>
  
  <!-- Círculo interior negro -->
  <circle cx="110" cy="100" r="20" fill="#121212" stroke="#0078D7" stroke-width="2"/>
  
  <!-- Radar tipo avión -->
  <g transform="translate(110,100)">
    <!-- Radar base (círculos concéntricos) -->
    <circle r="18" stroke="#0078D7" stroke-width="1" fill="none"/>
    <circle r="12" stroke="#0078D7" stroke-width="1" fill="none"/>
    <circle r="6" stroke="#0078D7" stroke-width="1" fill="none"/>
    
    <!-- Líneas del radar -->
    <line x1="0" y1="0" x2="0" y2="-18" stroke="#0078D7" stroke-width="1"/>
    <line x1="0" y1="0" x2="12.7" y2="-12.7" stroke="#0078D7" stroke-width="1"/>
    <line x1="0" y1="0" x2="18" y2="0" stroke="#0078D7" stroke-width="1"/>
    <line x1="0" y1="0" x2="12.7" y2="12.7" stroke="#0078D7" stroke-width="1"/>
    <line x1="0" y1="0" x2="0" y2="18" stroke="#0078D7" stroke-width="1"/>
    
    <!-- Barrido (triángulo que simula la barra del radar) con animación de rotación -->
    <path id="radarSweep" d="M0 0 L3 -18 L-3 -18 Z" fill="#0078D7" opacity="0.4" transform-origin="0 0">
      <animateTransform attributeName="transform" attributeType="XML" type="rotate" from="0" to="360" dur="4s" repeatCount="indefinite"/>
    </path>
    
    <!-- Avioncito estilizado (triángulo pequeño en el centro) -->
    <path d="M0 -6 L3 4 L-3 4 Z" fill="#0078D7"/>
  </g>

  <!-- Texto -->
  <text x="110" y="205" font-size="20" text-anchor="middle" fill="#0078D7" font-family="Segoe UI, sans-serif" font-weight="600">
    GuardianTrack
  </text>
</svg>
